/* XPM */
static char *Sprite_0[] = {
/* columns rows colors chars-per-pixel */
"64 64 3 1 ",
"  c #5FCDE4",
". c #CBDBFC",
"X c white",
/* pixels */
"..  XX............  XXXX............  ..........................",
"..  XX............  XXXX............  ..........................",
"....  XX............  XXXX............  ........................",
"....  XX............  XXXX............  ........................",
"......  ............    XXXX............  ......................",
"......  ............    XXXX............  ......................",
"........  ............    XXXX............  ....................",
"........  ............    XXXX............  ....................",
"........................    XXXX............  ..................",
"........................    XXXX............  ..................",
"..........................    XX............    ................",
"..........................    XX............    ................",
"............................    XX............    ..............",
"............................    XX............    ..............",
"..............................    XX............    ............",
"..............................    XX............    ............",
"................................    XX............    ..........",
"................................    XX............    ..........",
"..................................    ..............    ........",
"..................................    ..............    ........",
"......XX......XX....................    ..............    ......",
"......XX......XX....................    ..............    ......",
"......  XXXX..  XX....................  ................    ....",
"......  XXXX..  XX....................  ................    ....",
"........  XXXX..  XX......................................    ..",
"........  XXXX..  XX......................................    ..",
"..........  XXXX..  XX......................................    ",
"..........  XXXX..  XX......................................    ",
"............  XXXX..  XX......................................  ",
"............  XXXX..  XX......................................  ",
"  ............  XXXX..  XX......................................",
"  ............  XXXX..  XX......................................",
"................  XXXX..  XX....................................",
"................  XXXX..  XX....................................",
"..................  XXXX..  XX..................................",
"..................  XXXX..  XX..................................",
"....................  XXXX..  XX................................",
"....................  XXXX..  XX................................",
"......................  XXXX..  XX..............................",
"......................  XXXX..  XX..............................",
"........................  XXXX..  XX............................",
"........................  XXXX..  XX............................",
"..........................  XXXX..  XX..........................",
"..........................  XXXX..  XX..........................",
"............................  XXXX..  XX........................",
"............................  XXXX..  XX........................",
"..............................  XXXX..  XX......................",
"..............................  XXXX..  XX......................",
"................................  XXXX..  XX........XX..........",
"................................  XXXX..  XX........XX..........",
"..................................    XX..  XX........XX........",
"..................................    XX..  XX........XX........",
"............................................  XX......  XX......",
"............................................  XX......  XX......",
"..............................................  ........  XX....",
"..............................................  ........  XX....",
"..............XX................................  ........  XX..",
"..............XX................................  ........  XX..",
"................XX..........................................  XX",
"................XX..........................................  XX",
"XX..............XXXX............  ............................  ",
"XX..............XXXX............  ............................  ",
"  XX............  XXXX............  ............................",
"  XX............  XXXX............  ............................"
};
