/* XPM */
static char *_2ebc490e44f42f3f480c8e4ffb6c099BHnxj9ZNmfsRrmP2[] = {
/* columns rows colors chars-per-pixel */
"64 64 38 1 ",
"  c #170625",
". c #341B2E",
"X c #7B433B",
"o c #5A2F40",
"O c #5C3446",
"+ c #D2390E",
"@ c #D64B0E",
"# c #D64D0E",
"$ c #E9600E",
"% c #F46C0E",
"& c #9F5A5C",
"* c #B86A4A",
"= c #B87364",
"- c #FF890E",
"; c #FFA30E",
": c #E28251",
"> c #FFBC56",
", c #D28D6D",
"< c #C3967A",
"1 c #F2A66F",
"2 c #F3A76F",
"3 c #F3A770",
"4 c #FFC14A",
"5 c #FFC47B",
"6 c #FFC87B",
"7 c #427A95",
"8 c #656586",
"9 c #7E82A2",
"0 c #5FCDE4",
"q c #9B96A4",
"w c #E6B495",
"e c #E6B698",
"r c #FFE095",
"t c #9FA8C9",
"y c #F7E3D2",
"u c #CBDBFC",
"i c #FFFEE8",
"p c white",
/* pixels */
"uu00ppuuuuuuuuuuuu00ppppuuuuuuuuuuuu00uuuuuuuuuuuuuuuuuuuuuuuuuu",
"uu00ppuuuuuuuuuuuu00ppppuuuuuuuuuuuu00uuuuuuuuuuuuuuuuuuuuuuuuuu",
"uuuu00ppuuuuuuuuuuuu00ppppuuuuuuuuuuuu00uuuuuuuuuuuuuuuuuuuuuuuu",
"uuuu00ppuuuuuuuuuuuu00ppppuuuuuuuuuuuu00uuuuuuuuuuuuuuuuuuuuuuuu",
"uuuuuu00uuuuuuuuuuuu0000ppppuuuuuuuuuuuu00uuuuuuuuuuuuuuuuuuuuuu",
"uuuuuu00uuuuuuuuuuuu0000ppppuuuuuuuuuuuu00uuuuuuuuuuuuuuuuuuuuuu",
"uuuuuuuu00uuuuuuuuuuuu0000ppppuuuuuuuuuuuu00uuuuuuuuuuuuuuuuuuuu",
"uuuuuuuu00uuuuuuuuuuuu0000ppppuuuuuuuuuuuu00uuuuuuuuuuuuuuuuuuuu",
"uuuuuuuuuuuuuuuuuuuuuuuu0000poooOOO&&&&&&&&&&&&uuuuuuuuuuuuuuuuu",
"uuuuuuuuuuuuuuuuuuuuuuuu0000poooOOO&&&&&&&&&&&&uuuuuuuuuuuuuuuuu",
"uuuuuuuuuuuuuuuuuuuuuuuuuu000oooOOO&&&&&&&&&&&&0uuuuuuuuuuuuuuuu",
"uuuuuuuuuuuuuuuuuuuuuuu   ...<<<wwwyyyyyyiiiiiiooouuuuuuuuuuuuuu",
"uuuuuuuuuuuuuuuuuuuuuuu   ...<<<wwwyyyyyyiiiiiiooouuuuuuuuuuuuuu",
"uuuuuuuuuuuuuuuuuuuuuuu   ...<<<wwwyyyyyyiiiiiiooouuuuuuuuuuuuuu",
"uuuuuuuuuuuuuuuuuuuu   :::555rrrXXX555iiiiiiyyyyyyooouuuuuuuuuuu",
"uuuuuuuuuuuuuuuuuuuu   :::555rrrXXX555iiiiiiyyyyyyooouuuuuuuuuuu",
"uuuuuuuuuuuuuuuuuuuu   :::555rrrXXX555iiiiiiyyyyyyooo0uuuuuuuuuu",
"uuuuuuuuuuuuuuuuu      :::333555:::***iiiiii***yyy...0uuuuuuuuuu",
"uuuuuuuuuuuuuuuuu      :::333555:::***iiiiii***yyy...000uuuuuuuu",
"uuuuuuuuuuuuuuuuu      :::333555:::***iiiiii***yyy...000uuuuuuuu",
"uuuuuuppuuuuuu   555&&&:::333111122:::555iii666...uuuu0000uuuuuu",
"uuuuuuppuuuuuu   555&&&:::333111122:::555iii666...uuuu0000uuuuuu",
"uuuuuu00ppppuu   555&&&:::333111222:::555iii666...uuuuuu0000uuuu",
"uuuuuu00ppp   rrr,,,&&&@@@$$$%%%$$$$$$+++yyy@@@   uuuuuu0000uuuu",
"uuuuuuuu00p   rrr,,,&&&@@@$$$%%%$$$$$$+++yyy@@@   uuuuuuuu0000uu",
"uuuuuuuu00p   rrr,,,&&&@@@$$$%%%$$$$$$+++yyy@@@   uuuuuuuu0000uu",
"uuuuuuuuuu0   555&&&   +++@@@+++%%%%%%$$$www+++   uuuuuuuuuu0000",
"uuuuuuuuuu0   555&&&   +++@@@+++%%%%%%$$$www+++   uuuuuuuuuu0000",
"uuuuuuuuuuu   555&&&   +++@@@+++%%%%%%$$$www+++   uuuuuuuuuuuu00",
"uuuuuuuuuuu   ,,,      @@@$$$@@@;;;---$$$>>>@@@   uuuuuuuuuuuu00",
"00uuuuuuuuu   ,,,      @@@$$$@@@;;;---$$$>>>@@@   uuuuuuuuuuuuuu",
"00uuuuuuuuu   ,,,      @@@$$$@@@;;;---$$$>>>@@@   uuuuuuuuuuuuuu",
"uuuuuuuuuuu   ,,,&&&   @@@%%%###444---+++iii@@@   uuuuuuuuuuuuuu",
"uuuuuuuuuuu   ,,,&&&   @@@%%%###444---+++iii@@@   uuuuuuuuuuuuuu",
"uuuuuuuuuuu   ,,,&&&   @@@%%%###444---+++iii@@@   uuuuuuuuuuuuuu",
"uuuuuuuuuuu   &&&===   @@@---%%%%%%;;;%%%+++---   uuuuuuuuuuuuuu",
"uuuuuuuuuuu   &&&===   @@@---%%%%%%;;;%%%+++---   uuuuuuuuuuuuuu",
"uuuuuuuuuuu   &&&===   @@@---%%%%%%;;;%%%+++---   uuuuuuuuuuuuuu",
"uuuuuuuuuuuuuu   ===&&&+++@@@+++$$$%%%##@%%%+++   uuuuuuuuuuuuuu",
"uuuuuuuuuuuuuu   ===&&&+++@@@+++$$$%%%@@@%%%+++   uuuuuuuuuuuuuu",
"uuuuuuuuuuuuuu   ===&&&+++@@@+++$$$%%%@@@%%%+++   uuuuuuuuuuuuuu",
"uuuuuuuuuuuuuu   &&&===@@@$$$###;;;---$$$---@@@   uuuuuuuuuuuuuu",
"uuuuuuuuuuuuuu   &&&===@@@$$$###;;;---$$$---@@@   uuuuuuuuuuuuuu",
"uuuuuuuuuuuuuu   &&&===@@@$$$###;;;---$$$---@@@   uuuuuuuuuuuuuu",
"uuuuuuuuuuuuuuuuu   &&&@@@%%%###444---%%%;;;@@@   uuuuuuuuuuuuuu",
"uuuuuuuuuuuuuuuuu   &&&@@@%%%###444---%%%;;;@@@   uuuuuuuuuuuuuu",
"uuuuuuuuuuuuuuuuu   &&&@@@%%%###444---%%%;;;@@@   uuuuuuuuuuuuuu",
"uuuuuuuuuuuuuuuuuuuu   @@@---%%%%%%;;;%%%%%%@@@   uuuuuuuuuuuuuu",
"uuuuuuuuuuuuuuuuuuuu   @@@---%%%%%%;;;%%%%%%@@@   uuppuuuuuuuuuu",
"uuuuuuuuuuuuuuuuuuuu   @@@---%%%%%%;;;%%%%%%@@@   uuppuuuuuuuuuu",
"uuuuuuuuuuuuuuuuuuuu   &&&:::333555yyyiiiyyyeee   uuuuppuuuuuuuu",
"uuuuuuuuuuuuuuuuuuuu   &&&:::333555yyyiiiyyyeee   uuuuppuuuuuuuu",
"uuuuuuuuuuuuuuuuuuuu   &&&:::333555yyyiiiyyyeee   uuuu00ppuuuuuu",
"uuuuuuuuuuuuuuttt999888                        q99tttu00ppuuuuuu",
"uuuuuuuuuuuuuuttt999888                        799tttuuu00ppuuuu",
"uuuuuuuuuuuuuuttt999888                        799tttuuu00ppuuuu",
"uuuuuuuuuuuuuuppuuuuuuuuuuuuuuuuuuuuuuuuuuuuuuuu00uuuuuuuu00ppuu",
"uuuuuuuuuuuuuuppuuuuuuuuuuuuuuuuuuuuuuuuuuuuuuuu00uuuuuuuu00ppuu",
"uuuuuuuuuuuuuuuuppuuuuuuuuuuuuuuuuuuuuuuuuuuuuuuuuuuuuuuuuuu00pp",
"uuuuuuuuuuuuuuuuppuuuuuuuuuuuuuuuuuuuuuuuuuuuuuuuuuuuuuuuuuu00pp",
"ppuuuuuuuuuuuuuuppppuuuuuuuuuuuu00uuuuuuuuuuuuuuuuuuuuuuuuuuuu00",
"ppuuuuuuuuuuuuuuppppuuuuuuuuuuuu00uuuuuuuuuuuuuuuuuuuuuuuuuuuu00",
"00ppuuuuuuuuuuuu00ppppuuuuuuuuuuuu00uuuuuuuuuuuuuuuuuuuuuuuuuuuu",
"00ppuuuuuuuuuuuu00ppppuuuuuuuuuuuu00uuuuuuuuuuuuuuuuuuuuuuuuuuuu"
};
