/* XPM */
static char *Sprite_3[] = {
/* columns rows colors chars-per-pixel */
"64 64 7 1 ",
"  c black",
". c #3A4466",
"X c #5A6988",
"o c #5FCDE4",
"O c #8B9BB4",
"+ c #CBDBFC",
"@ c white",
/* pixels */
"++oo@@++++++++++++oo@@@@++++++++++++oo++++++++++++++++++++++++++",
"++oo@@++++++++++++oo@@@@++++++++++++oo++++++++++++++++++++++++++",
"++++oo@@++++++++++++oo@@@@++++++++++++oo++++++++++++++++++++++++",
"++++oo@@++++++++++++oo@@@@++++++++++++oo++++++++++++++++++++++++",
"++++++oo++++          oo@@@@++++++++++++oo+          +++++++++++",
"++++++oo++++          oo@@@@++++++++++++oo+          +++++++++++",
"++++++++oo++          oooo@@@@++++++++++++o          +++++++++++",
"++++++++oo++   .......                     ......    +++++++++++",
"++++++++++++   .......                     ......    +++++++++++",
"++++++++++++   .......                     ......    +++++++++++",
"++++++++++++   .......                     ......    +++++++++++",
"++++++++++++   ..............       .............    +++++++++++",
"++++++++++++   ..............       .............    +++++++++++",
"++++++++++++   ..............       .............    +++++++++++",
"++++++++++++   ....   ....             ....   ...    +++++++++++",
"++++++++++++   ....   ....             ....   ...    +++++++++++",
"++++++++++++   ....   ....             ....   ...    o++++++++++",
"++++++++++++   ....   ....             ....   ...    o++++++++++",
"+++++++++++++++    .......   .......   .......   +++oooo++++++++",
"+++++++++++++++    .......   .......   .......   +++oooo++++++++",
"++++++@@++++++@    .......   .......   .......   +++++oooo++++++",
"++++++@@++++++@    ...XXXXXXX.......XXXXXXX...   +++++oooo++++++",
"++++++oo@@@@++o    ...XXXXXXX.......XXXXXXX...   +++++++oooo++++",
"++++++oo@@@@++o    ...XXXXXXX.......XXXXXXX...   +++++++oooo++++",
"++++++++oo@@       XXXXXXXXXX.......XXXXXXXXXX       +++++oooo++",
"++++++++oo@@       XXXXXXXXXX.......XXXXXXXXXX       +++++oooo++",
"++++++++++oo       XXXXXXXXXX.......XXXXXXXXXX       +++++++oooo",
"++++++++++oo       XXXXXXXXXX.......XXXXXXXXXX       +++++++oooo",
"++++++++++++   ....XXXXXXX...XXXXXXX   XXXXXXX...    +++++++++oo",
"++++++++++++   ....XXXXXXX...XXXXXXX   XXXXXXX...    +++++++++oo",
"oo++++++++++   ....XXXXXXX...XXXXXXX   XXXXXXX...    +++++++++++",
"oo++++++++++   XXXX.............XXXX   .......XXX    +++++++++++",
"++++++++++++   XXXX.............XXXX   .......XXX    +++++++++++",
"++++++++++++   XXXX.............XXXX   .......XXX    +++++++++++",
"++++++++++++   XXXX.............XXXX   .......XXX    +++++++++++",
"++++++++++++   XXXXXXXXXXX   XXXXXXX   XXXXXXXXXX    +++++++++++",
"++++++++++++   XXXXXXXXXXX   XXXXXXX   XXXXXXXXXX    +++++++++++",
"++++++++++++   XXXXXXXXXXX   XXXXXXX   XXXXXXXXXX    +++++++++++",
"++++++++++++   ....OOOXXXX   XXX....   XXXXOOO...    +++++++++++",
"++++++++++++   ....OOOXXXX   XXX....   XXXXOOO...    +++++++++++",
"++++++++++++   ....OOOXXXX   XXX....   XXXXOOO...    +++++++++++",
"+++++++++++++++    XXX       XXX....       XXX   +++++++++++++++",
"+++++++++++++++    XXX       XXX....       XXX   +++++++++++++++",
"+++++++++++++++    XXX       XXX....       XXX   +++++++++++++++",
"+++++++++++++++    XXX       XXX....       XXX   +++++++++++++++",
"+++++++++++++++    XXXXXXX   ...XXXX   XXXXXXX   +++++++++++++++",
"+++++++++++++++    XXXXXXX   ...XXXX   XXXXXXX   +++++++++++++++",
"+++++++++++++++    XXXXXXX   ...XXXX   XXXXXXX   +++++++++++++++",
"+++++++++++++++    OOOXXXX             XXXXOOO   +++@@++++++++++",
"+++++++++++++++    OOOXXXX             XXXXOOO   +++@@++++++++++",
"+++++++++++++++    OOOXXXX             XXXXOOO   +++++@@++++++++",
"+++++++++++++++    OOOXXXX             XXXXOOO   +++++@@++++++++",
"+++++++++++++++    OOO    XXX       XXX    OOO   +++++oo@@++++++",
"+++++++++++++++    OOO    XXX       XXX    OOO   +++++oo@@++++++",
"+++++++++++++++    OOO    XXX       XXX    OOO   +++++++oo@@++++",
"++++++++++++++++++++++++++++++++++++++++++++++oo++++++++oo@@++++",
"++++++++++++++@@++++++++++++++++++++++++++++++++oo++++++++oo@@++",
"++++++++++++++@@++++++++++++++++++++++++++++++++oo++++++++oo@@++",
"++++++++++++++++@@++++++++++++++++++++++++++++++++++++++++++oo@@",
"++++++++++++++++@@++++++++++++++++++++++++++++++++++++++++++oo@@",
"@@++++++++++++++@@@@++++++++++++oo++++++++++++++++++++++++++++oo",
"@@++++++++++++++@@@@++++++++++++oo++++++++++++++++++++++++++++oo",
"oo@@++++++++++++oo@@@@++++++++++++oo++++++++++++++++++++++++++++",
"oo@@++++++++++++oo@@@@++++++++++++oo++++++++++++++++++++++++++++"
};
