/* XPM */
static char *result[] = {
/* columns rows colors chars-per-pixel */
"50 50 97 2 ",
"   c #010101",
".  c #0B0504",
"X  c #0E0907",
"o  c #100B07",
"O  c #1B0B07",
"+  c #130C09",
"@  c #1D0E0B",
"#  c #1D130D",
"$  c #24140F",
"%  c #221710",
"&  c #251911",
"*  c #2D1E15",
"=  c #241818",
"-  c #2B1D1B",
";  c #311E15",
":  c #2E2016",
">  c #332017",
",  c #382217",
"<  c #352419",
"1  c #39251A",
"2  c #3D291D",
"3  c #3B2821",
"4  c #412C1F",
"5  c #4A321F",
"6  c #442E20",
"7  c #482F21",
"8  c #473021",
"9  c #4C3323",
"0  c #503625",
"q  c #523827",
"w  c #583D24",
"e  c #563B28",
"r  c #593D2A",
"t  c #4B3932",
"y  c #43383B",
"u  c #5C412C",
"i  c #654527",
"p  c #62442C",
"a  c #6D4C2B",
"s  c #724E2A",
"d  c #75512A",
"f  c #79542B",
"g  c #654731",
"h  c #674931",
"j  c #6C4C34",
"k  c #704F35",
"l  c #6E5436",
"z  c #715235",
"x  c #7F5B34",
"c  c #745338",
"v  c #79563A",
"b  c #7C593C",
"n  c #7B623F",
"m  c #3C3843",
"M  c #4C4A58",
"N  c #52566D",
"B  c #555C75",
"V  c #855C2E",
"C  c #8C622F",
"Z  c #84643B",
"A  c #906430",
"S  c #9C6D35",
"D  c #996D39",
"F  c #A17036",
"G  c #B17C3A",
"H  c #836740",
"J  c #887047",
"K  c #A37C44",
"L  c #B7803B",
"P  c #BB843D",
"I  c #9E8352",
"U  c #A5854F",
"Y  c #B08142",
"T  c #A88E58",
"R  c #B99251",
"E  c #B7995B",
"W  c #C58C42",
"Q  c #C98D40",
"!  c #D79945",
"~  c #D59D4D",
"^  c #D89C49",
"/  c #DFA049",
"(  c #D3A255",
")  c #E7A64C",
"_  c #E5A84F",
"`  c #E1B35F",
"'  c #EBB35A",
"]  c #F1B356",
"[  c #F2BB5F",
"{  c #C9AD68",
"}  c #D5B065",
"|  c #DEBB6C",
" . c #EDC169",
".. c #606C8B",
"X. c #677598",
"o. c #6E7FA6",
"O. c None",
/* pixels */
"o.X.B m = O O @ @ @ @ @ @ @ $ @ @ @ @ @ @ @ @ @ @ @ @ @ @ @ @ @ @ @ @ @ @ @ @ @ @ @ @ O O = m B X.o.",
"X...N m - $ $ $ % & % $ $ $ $ $ $ $ $ $ $ $ $ $ $ $ $ $ $ $ $ $ $ $ $ $ $ $ % % % $ $ @ $ - m N ..X.",
"B N M y 3 ; ; , , 1 1 , ; ; 4 ; 4 ; 4 ; ; , 4 ; 4 ; 4 ; , ; , 4 1 1 1 1 1 , , , 4 ; , , ; 3 y M N B ",
"m m y t e e e w q q e q r e e 0 0 e e e e e 0 e e 0 e e r e 0 e q q q q w e e e e e e r e q t m m m ",
"= - 3 q h k k j l j j j j j j j j j j j j j j j j k j j j j j j j j j j j j j l h j k k k h e 6 - = ",
"O % , e k v v v v v v v v v v v v v v v v v v v c v c c v v v v v v v v v v v c v v v v v k r ; $ O ",
"O $ , e k v v v v v v v v v v v v v v v v v v v v v v V v v v v v v v v v v b b v v V v v c q ; $ O ",
"O $ , e j v v v c c c c c c c c c c c c c c c c c c c c c c c c c c c c z v c l c c c c c k q 1 $ @ ",
"@ % ; q h j j h h h h h h h h h h h h h h h h h j h h h h h h h h h j h h h h h h g j j k h q ; $ @ ",
"@ $ ; 7 r u r e q q q q q q q q q q q q q q q q q q q q q q q q q q q 0 q q q q q q q r u r 7 ; $ @ ",
"@ $ ; 6 0 0 7 3 2 2 3 3 2 2 4 2 2 2 2 2 2 3 2 2 3 6 6 3 2 2 3 3 2 2 3 2 2 3 2 2 2 2 3 8 0 0 4 ; $ @ ",
"@ $ ; 4 0 0 6 3 < < 1 1 1 1 1 < < < < < 2 1 1 1 3 ; ; 3 1 < 1 1 < < 1 < 1 1 2 < < , 1 7 0 0 7 ; $ @ ",
"@ $ ; 0 r r 7 1 < < 2 4 4 2 2 1 < < < 2 4 4 4 4 4 4 4 4 6 4 2 < < < 2 2 8 2 2 2 < < 1 8 r r 7 ; $ @ ",
"@ $ ; 0 h p 9 6 < 2 8 9 9 9 8 4 1 < 1 8 8 9 9 8 7 9 8 8 9 8 6 2 < < 2 8 8 9 9 8 3 1 2 0 p g e ; $ @ ",
"@ $ 1 r j h q ; 1 4 9 9 q 0 9 4 2 2 3 9 9 0 0 0 0 0 0 e 0 0 8 2 2 < 4 9 0 q 0 9 2 1 2 0 g j w 1 $ @ ",
"@ $ 1 r j h q 6 1 6 9 q q 0 0 8 4 4 8 9 0 e 0 0 0 0 0 0 q 0 8 2 < 1 4 9 q q 0 9 8 1 3 0 h k r 1 $ @ ",
"@ $ 1 e l h 0 2 1 4 9 0 q 0 9 9 9 9 9 9 0 0 0 0 0 0 0 0 q 0 9 2 1 1 4 9 0 q 0 9 4 1 2 q h j r 1 $ @ ",
"@ & 1 e h g 0 2 1 4 9 0 0 0 0 0 q 0 9 0 0 0 0 0 9 0 0 9 0 0 5 4 2 2 6 9 0 0 0 9 4 1 2 0 g j q 1 $ @ ",
"@ $ < e j g q 2 1 4 9 0 0 0 0 0 0 0 q 0 0 0 0 9 q 0 0 0 0 q 9 5 4 4 8 9 0 0 0 9 3 1 2 0 g j r 1 $ @ ",
"@ % 2 q j h q 1 1 4 9 0 0 0 0 0 0 0 0 0 0 0 0 0 0 0 0 0 9 9 9 9 9 8 0 9 0 q 0 9 8 1 2 0 g j r , $ @ ",
"@ $ 1 r j g 0 2 1 4 9 q 0 0 0 0 0 0 0 0 0 0 0 0 0 0 0 0 q 0 0 9 9 0 q 0 0 0 0 9 2 2 2 0 h l e 1 $ @ ",
"@ $ 1 e l g 0 2 1 4 9 q 0 0 0 0 0 0 0 0 0 0 0 0 0 0 0 0 0 0 q q q q 9 9 9 9 9 8 2 < 2 q h h e 1 $ @ ",
"@ $ 1 e j g q 2 1 4 9 9 0 0 0 0 0 0 0 0 0 0 0 0 9 0 0 0 9 0 0 0 0 9 9 8 9 9 9 8 2 < 2 q g j e 1 $ @ ",
"@ $ 1 e j h q 2 1 4 9 0 0 0 0 0 0 0 0 9 0 0 9 q 0 0 0 0 0 0 0 0 q q e e u u u 0 8 2 2 q h j e 1 $ @ ",
"@ $ , r k h 0 4 1 6 9 q q 9 0 0 0 0 0 0 0 0 0 0 0 0 0 0 0 0 9 9 0 u l n H Z x a w 4 3 0 h j r , $ @ ",
"@ $ , e j h q 1 1 3 9 9 q q 0 0 0 0 0 0 0 0 0 0 0 0 0 q 0 0 0 9 q h J T E R L S s 9 3 0 g j r 1 $ @ ",
"@ $ 4 e j h 0 3 1 6 9 0 0 0 0 0 0 0 0 0 0 0 9 0 0 0 0 9 0 0 9 9 q l I { | ` ( L V w 1 9 g j r , $ @ ",
"@ $ ; r j h 0 2 1 6 9 9 0 0 0 9 0 0 9 0 0 0 0 0 0 0 0 0 0 0 0 7 q z U }  .[ _ Q C w 6 0 p j r ; $ $ ",
"@ $ , e j g q 2 1 6 9 0 0 0 0 0 9 0 0 0 0 0 0 0 0 0 0 0 0 0 9 7 q z K ( ' ] ) Q A w 4 5 g j e 4 % @ ",
"@ % 1 e j g 0 2 1 4 9 9 0 0 0 0 0 0 0 0 0 0 0 0 0 0 0 9 0 0 9 9 q a S W ! ) ! P V w 4 9 g j e ; $ @ ",
"@ $ 1 r j g q 1 1 4 9 0 0 0 0 0 0 0 0 0 0 0 0 0 0 0 0 0 0 0 0 9 0 i V F G L G S d 5 2 9 g j r 1 $ @ ",
"@ $ , r j g q 3 1 4 9 0 0 0 0 0 0 0 0 0 0 0 9 0 0 0 0 0 0 0 0 0 9 w i s f f f a w 4 2 0 g j r 1 $ @ ",
"@ $ 1 r j g q 1 1 6 9 0 0 0 0 0 0 0 0 0 0 0 0 0 0 0 0 0 9 q 0 q 9 0 5 5 8 5 5 4 2 1 2 0 h j q 1 $ @ ",
"@ $ 1 e j g q 3 < 6 9 0 0 0 9 9 9 9 9 9 0 0 0 0 0 0 0 0 0 0 9 q q 8 4 2 < , , < > < 3 q h l e 1 $ @ ",
"@ $ ; r j g 0 4 1 3 9 0 0 0 0 8 8 4 8 9 0 0 0 9 0 0 0 0 0 0 0 0 0 9 8 4 2 2 2 2 < < 2 0 g j e 1 $ @ ",
"@ $ 4 r j h q 1 1 6 9 0 e 0 9 6 2 1 4 9 0 0 0 0 9 0 0 0 0 0 0 0 0 0 9 8 9 9 9 7 2 2 2 0 g j w 1 $ @ ",
"@ $ 1 r k h 0 3 , 4 7 0 0 0 9 6 1 < 2 8 0 0 0 0 0 0 0 9 0 0 0 0 0 0 0 0 0 0 0 9 6 1 3 0 h j r , $ @ ",
"@ $ ; e j g q 6 2 4 9 e 0 0 9 4 1 1 2 9 0 0 0 0 0 0 0 0 0 0 0 0 q 0 0 q 0 q 0 9 3 1 2 0 g j r 1 $ @ ",
"@ $ ; e j g e ; , 6 9 0 0 0 9 4 1 < 4 8 0 0 0 0 0 0 0 0 0 0 0 0 0 0 0 0 0 0 0 9 4 1 2 q g j r , $ @ ",
"@ $ 4 r j h 0 4 < 6 9 0 0 e 9 4 1 1 4 8 0 0 0 0 0 0 0 0 0 0 0 9 9 9 9 0 0 e 0 9 6 1 2 q g j r 1 $ @ ",
"@ $ 1 r l j q 2 1 6 9 e e 0 9 6 2 < 4 9 0 q q q q q q q q q 0 8 8 8 9 q q q q 0 6 1 3 q l l r 1 $ @ ",
"@ $ 1 r j h q 2 1 6 9 0 q 0 9 6 2 < 4 9 0 q q 0 e 0 0 0 q q 9 6 2 2 8 0 e q q 9 2 2 2 0 h j r 1 $ @ ",
"@ $ < 9 u u 8 < > < 6 8 8 8 6 2 > > < 2 8 8 8 8 4 8 5 6 8 4 2 < > < 1 4 5 4 8 4 2 < < 8 u p 9 , $ @ ",
"$ $ * < 3 2 : & % & * : ; * * & & # & * * * * : : ; : ; : : * & # # & * ; ; : : & # % : 2 2 , * $ @ ",
"$ $ $ # # # + o X + + + + + + + X X X + + # + + + + + + + + + X X o + + + + + + o X X + + # # % $ $ ",
"@ @ O .                                                                                   . X + @ @ ",
"+ + X                                                                                         o o + ",
". . .   O.O.O.O.O.O.O.O.O.O.O.O.O.O.O.O.O.O.O.O.O.O.O.O.O.O.O.O.O.O.O.O.O.O.O.O.O.O.O.O.O.O.  . . . ",
"      O.O.O.O.O.O.O.O.O.O.O.O.O.O.O.O.O.O.O.O.O.O.O.O.O.O.O.O.O.O.O.O.O.O.O.O.O.O.O.O.O.O.O.O.      ",
"      O.O.O.O.O.O.O.O.O.O.O.O.O.O.O.O.O.O.O.O.O.O.O.O.O.O.O.O.O.O.O.O.O.O.O.O.O.O.O.O.O.O.O.O.      "
};
