/* XPM */
static char *ezgif_4_6fd04b069c[] = {
/* columns rows colors chars-per-pixel */
"50 50 91 1 ",
"  c #BBC8D3",
". c #9EDDF0",
"X c #B6C7E1",
"o c #BCCDE9",
"O c #A1E3EF",
"+ c #A7E0F1",
"@ c #B4E7F3",
"# c #BFE0F7",
"$ c #B5E8F3",
"% c #C8D2D7",
"& c #C5D0D8",
"* c #C8D2D8",
"= c #CAD3D9",
"- c #CBD4D9",
"; c #CBD6E1",
": c #D2DCE6",
"> c #C9DAFC",
", c #CADAFC",
"< c #CBDBFC",
"1 c #CCDBFC",
"2 c #CDDCFC",
"3 c #D0DEFC",
"4 c #D1DFFC",
"5 c #DAE0E4",
"6 c #DEE4E7",
"7 c #D9E1E8",
"8 c #C0EBF4",
"9 c #C0E1F8",
"0 c #CEE5FA",
"q c #D3E0FC",
"w c #D7E2FD",
"e c #D7E4FD",
"r c #D8E4FD",
"t c #D9E5FD",
"y c #DAE5FD",
"u c #DCE6FC",
"i c #DCE7FD",
"p c #DDE7FD",
"a c #E0E5E8",
"s c #E6EBED",
"d c #E7ECEE",
"f c #E8ECEE",
"g c #ECEFF1",
"h c #E0E9FD",
"j c #E1EAFD",
"k c #E2EBFD",
"l c #E3ECFD",
"z c #E4ECFD",
"x c #E4EDFD",
"c c #E5EDFD",
"v c #E6EEFD",
"b c #E5EDFE",
"n c #E6EEFE",
"m c #E7EEFE",
"M c #E8EFFE",
"N c #E9F0FE",
"B c #EBF1FE",
"V c #EBF2FE",
"C c #ECF2FE",
"Z c #EDF3FE",
"A c #EEF3FE",
"S c #EFF4FE",
"D c #F3F5F6",
"F c #F4F6F7",
"G c #F0F4FE",
"H c #F1F5FE",
"J c #F1F6FE",
"K c #F2F6FE",
"L c #F3F6FE",
"P c #F3F7FE",
"I c #F4F7FE",
"U c #F7F9FA",
"Y c #F4F8FE",
"T c #F5F8FE",
"R c #F6F9FE",
"E c #F7F9FF",
"W c #F3FCFD",
"Q c #F9FAFA",
"! c #F8FAFF",
"~ c #F9FBFF",
"^ c #FAFBFF",
"/ c #FAFCFF",
"( c #FBFCFF",
") c #FCFDFD",
"_ c #FDFDFD",
"` c #FCFDFF",
"' c #FDFDFF",
"] c #FDFEFF",
"[ c #FEFEFF",
"{ c #FEFFFF",
"} c #FFFFFF",
/* pixels */
"e{{{{{{{{{b{CK{{{{{{{{{{{{{{{{{b/{{{{CK{{{{{{{{{{{",
"B{{{{{{{{{{{{{{{{{{{{{{{{{{{{{{{{{{{{{{{{{{{{{{{{{",
"${{{{{{{{{{{{{{{{{{{{{{{{{{{{{{{{{{{{{{{{{{{{{{{{{",
"0{{{{{{{{{{{{{{{{{{{{F{{{{{{{{{{{{{{{{{{{{{{{{F{{{",
"{{{{{{{{{{{{{{{{{{{{s*d{{{{{{{{{{{{{{{{{{{{{{s*f{{",
"8{{{{{{{{{{{{{{{{{{{6-a{{{{{{{{{{{{{{{{{{{{{{6-a{{",
"9{{{{{{RB{{{{{{{{{{{{g{{{{{{{{{{RB{{{{{{{{{{{{g{{{",
"w~{{{{jCj{{{{{{{{{{{{{{{{{{{{{{jCj{{{{{{{{{{{{{{{{",
",j{{{{iKC{{{{{{{{{{{{{{{{{{{{{{iKC{{{{{{{{{{{{{{{{",
",j{{{{K{{{{{{{{{{{{{{{{{{{{{{{{K{{{{{{{{{{{{{{{{{{",
",b{{{{{{{{{{{{{{{{{{{{{MK{{{{{{{{{{{{{{{{{{{{{{{MK",
"r{{{{{{{{{{{{{{{{{{{{{Kbb{{{{{{{{{{{{{{{{{{{{{{Kbj",
"r{{{{{{{{{{{{{{{{{{{{{{K~{{{{{{{{{{{{{{{{{{{{{{{K~",
"R{{{{5f{{{{{{{{{{{{{{{{{{{{{{{5f{{{{{{{{{{{{{{{{{{",
"~{{{f-*Q{{{{{{{{{{{{{{{{{{{{{f-*Q{{{{{{{{{{{{{{{{{",
"M{{{{6g{{{{{{{{{{{{{{{{{{{{{{{6g{{{{{{{{{{{{{{{{{{",
"{{{{{{{{{{{{{{{{{{{{{{{{{{{{{{{{{{{{{{{{{{{{{{{{{{",
"WCC{{{{{{{{{{{{{{{{{{{{{{{CC{{{{{{{{{{{{{{{{{{{{{{",
"+b2/{~{{{{{{{{{{{{R{{{{{{{b2/{~{{{{{{{{{{{{R{{{{{{",
"rKq:ib{{{{{{{{{{{~i{{{{{{{Kq:ib{{{{{{{{{{{~i{{{{{{",
"r{;Xo7{{{{{{{{{{{~iCK{{{{{{;Xo7{{{{{{{{{{{~iCK{{{{",
"~{F &Q{{{{{{{{{{{~bbC{{{{{{D &Q{{{{{{{{{{{/bbC{{{{",
"{{{{{{{{{{{{{{{{{{{SK{{{{{{{{{{{{{{{{{{{{{{{SK{{{{",
"{{{{{{{{{{{{{{{{{{{{{{{{{{{{{{{{{{{{{{{{{{{{{{{{{{",
"j{{{{{{{{{{{{bR{{{{{{{{{{{{{{{{{{{{{{{bR{{{{{{{{{{",
"j{{{{{{{{{{{Cbb{{{{{{{{{{{{{{{{{{{{{{Cbb{{{{{{{{{{",
"{{{{{{{{{{{{{C/{{{{{{{{{{{{{{{{{{{{{{{C/{{{{{{{{{{",
"@{{{{{{{{{{{{{{{{{{{{{{{{{{{{{{{{{{{{{{{{{{{{{{{{{",
"0{{{{{{{{{{{{{{{{{{{{F{{{{{{{{{{{{{{{{{{{{{{{{F{{{",
"{{{{{{{{{{{{{{{{{{{{s*f{{{{{{{{{{{{{{{{{{{{{{s%d{{",
"8{{{{{{{{{{{{{{{{{{{6-a{{{{{{{{{{{{{{{{{{{{{{6-a{{",
"#{{{{{{RB{{{{{{{{{{{{g{{{{{{{{{{RB{{{{{{{{{{{{g{{{",
"1b{{{{jCj{{{{{{{{{{{{{{{{{{{{{{jCj{{{{{{{{{{{{{{{{",
"3C{{{{iKC{{{{{{{{{{{{{{{{{{{{{{iKC{{{{{{{{{{{{{{{{",
"r{{{{{K{{{{{{{{{{{{{{{{{{{{{{{{K{{{{{{{{{{{{{{{{{{",
"~{{{{{{{{{{{{{{{{{{{{{{MK{{{{{{{{{{{{{{{{{{{{{{{MK",
"R{{{{{{{{{{{{{{{{{{{{{Kbb{{{{{{{{{{{{{{{{{{{{{{Kbj",
"r{{{{{{{{{{{{{{{{{{{{{{K~{{{{{{{{{{{{{{{{{{{{{{{K~",
"r{{{{5f{{{{{{{{{{{{{{{{{{{{{{{5f{{{{{{{{{{{{{{{{{{",
"r{{{f-*Q{{{{{{{{{{{{{{{{{{{{{f-*Q{{{{{{{{{{{{{{{{{",
"b{{{{6g{{{{{{{{{{{{{{{{{{{{{{{6g{{{{{{{{{{{{{{{{{{",
"{{{{{{{{{{{{{{{{{{{{{{{{{{{{{{{{{{{{{{{{{{{{{{{{{{",
"OBC{{{{{{{{{{{{{{{{{{{{{{{CC{{{{{{{{{{{{{{{{{{{{{{",
".b2/{~{{{{{{{{{{{{R{{{{{{{b2/{~{{{{{{{{{{{{R{{{{{{",
"rKq:ib{{{{{{{{{{{~i{{{{{{{Kq:ib{{{{{{{{{{{~i{{{{{{",
"K{;Xo7{{{{{{{{{{{~iCK{{{{{{;Xo7{{{{{{{{{{{~iCK{{{{",
"{{F &Q{{{{{{{{{{{/bbC{{{{{{F &Q{{{{{{{{{{{/bbC{{{{",
"CR{{{{{{{{{{{{{{{{{SK{{{{{{{{{{{{{{{{{{{{{{{SK{{{{",
"3K{{{{{{{{{{{{{{{{{{{{{{{{{{{{{{{{{{{{{{{{{{{{{{{{",
"r{{{{{b/{{{{{b~{BR{{{{{{{{{{{{{{b{{{{{b~{BR{{{{{{{"
};
