/* XPM */
static char *_badeb334bdf46e4ea210f4f98e1cbe0TdaXYkIcYe3UIhLv[] = {
/* columns rows colors chars-per-pixel */
"64 64 4 1 ",
"  c #CBDBFC",
". c white",
"X c #5FCDE4",
"o c #9BADB7",
/* pixels */
" ............ .. ....................... ....... ...............",
" ...............................................................",
"................................................................",
"X...............................................................",
" ...............................................................",
"...........................o...............................o....",
"..........................o.o.............................o.o...",
"X..........................o...............................o....",
" ......... ............................... .....................",
" ....... . ............................. . .....................",
"  ...... . ............................. . .....................",
"  ...... ............................... .......................",
"  ..............................................................",
"  ............................ ............................... .",
" ............................ . ............................. . ",
" ............................. ............................... .",
" ...............................................................",
".......o...............................o........................",
"......o.o.............................o.o.......................",
" ......o...............................o........................",
"................................................................",
"................................................................",
".. ............................... .............................",
"X.  ..............................  ............................",
" .  .. ................ ..........  .. ................ ........",
" .. o  ................ ........... o  ................ ........",
" ..o  o................ . .........o  o................ . ......",
"....oo................. . ..........oo................. . ......",
"......................... ............................... ......",
"................................................................",
"................................................................",
" ................ ............................... ..............",
" ............... . ............................. . .............",
"................. ............................... ..............",
"................................................................",
"X...............................................................",
" ...............................................................",
"...........................o...............................o....",
"..........................o.o.............................o.o...",
"X..........................o...............................o....",
" ......... ............................... .....................",
"  ...... . ............................. . .....................",
"  ...... . ............................. . .....................",
" ....... ............................... .......................",
" ...............................................................",
".............................. ............................... .",
"............................. . ............................. . ",
" ............................. ............................... .",
" ...............................................................",
" ......o...............................o........................",
" .....o.o.............................o.o.......................",
" ......o...............................o........................",
"................................................................",
"................................................................",
"X. ............................... .............................",
"X.  ..............................  ............................",
" .  .. ................ ..........  .. ................ ........",
" .. o  ................ ........... o  ................ ........",
"...o  o................ . .........o  o................ . ......",
"....oo................. . ..........oo................. . ......",
"......................... ............................... ......",
"  ..............................................................",
" ...............................................................",
" ....... ........ ... ................... ....... ... .........."
};
