/* XPM */
static char *_30f0c58137944eae2689958cb2a4386LZBOfUJA2LiyGsqn[] = {
/* columns rows colors chars-per-pixel */
"50 50 123 2 ",
"   c None",
".  c #6B473C",
"X  c #6D493D",
"o  c #724C3E",
"O  c #6F4D42",
"+  c #754F41",
"@  c #765042",
"#  c #7B5342",
"$  c #75554A",
"%  c #795549",
"&  c #7C5A4E",
"*  c #7B5D51",
"=  c #7E6256",
"-  c #7F6459",
";  c #805745",
":  c #845A45",
">  c #895E46",
",  c #805B4D",
"<  c #8C5F48",
"1  c #835E51",
"2  c #8C6047",
"3  c #8E6148",
"4  c #936449",
"5  c #836255",
"6  c #896456",
"7  c #836659",
"8  c #8B6759",
"9  c #85695D",
"0  c #8A6C5E",
"q  c #936F5F",
"w  c #8B6E61",
"e  c #946F60",
"r  c #8D7062",
"t  c #8E7062",
"y  c #8F7163",
"u  c #8D7061",
"i  c #8F7263",
"p  c #917062",
"a  c #907263",
"s  c #907264",
"d  c #917264",
"f  c #917364",
"g  c #927364",
"h  c #947565",
"j  c #957566",
"k  c #937465",
"l  c #9B7666",
"z  c #987867",
"x  c #987867",
"c  c #977768",
"v  c #997868",
"b  c #997968",
"n  c #9B7969",
"m  c #9A7A69",
"M  c #9B7A69",
"N  c #9A796A",
"B  c #9D7969",
"V  c #9D7B6A",
"C  c #9F7A6A",
"Z  c #9E7D6A",
"A  c #9E7C6C",
"S  c #9F7D6D",
"D  c #9F7E6D",
"F  c #9F7E6E",
"G  c #9A7A69",
"H  c #A27E6D",
"J  c #A37E6D",
"K  c #A07E6E",
"L  c #A17F6C",
"P  c #A3806D",
"I  c #A3806E",
"U  c #A2806F",
"Y  c #A4816E",
"T  c #A5806F",
"R  c #A5826E",
"E  c #A4826E",
"W  c #A48170",
"Q  c #A78471",
"!  c #A88372",
"~  c #A88470",
"^  c #A88471",
"/  c #AA8671",
"(  c #A88472",
")  c #A98573",
"_  c #AA8573",
"`  c #AC8772",
"'  c #A98574",
"]  c #AA8674",
"[  c #AC8774",
"{  c #AC8775",
"}  c #AB8671",
"|  c #AC8875",
" . c #AF8A74",
".. c #AF8A76",
"X. c #AE8874",
"o. c #B18B76",
"O. c #B08A77",
"+. c #B28C75",
"@. c #B28C76",
"#. c #B48D77",
"$. c #B58E77",
"%. c #B28C76",
"&. c #B18B78",
"*. c #B38D78",
"=. c #B38C79",
"-. c #B58E78",
";. c #B68F79",
":. c #B58E79",
">. c #B79078",
",. c #B7907A",
"<. c #B79079",
"1. c #B99179",
"2. c #B8907A",
"3. c #B9917B",
"4. c #BB927A",
"5. c #BB937A",
"6. c #BA927B",
"7. c #BB927B",
"8. c #BC937B",
"9. c #BD947B",
"0. c #BD947C",
"q. c #BF967C",
"w. c #BC937B",
/* pixels */
"                                                                                                    ",
"                                                                                                    ",
"                                                                                                    ",
"                                    @ # @ @ @ # @ @ @ @                                             ",
"                                  @ o # # @ ; o # o # o @ @                                         ",
"                                @ # # o # # o o # # ; o # @                                         ",
"                              # # # ; ; ; # ; ; ; # # ; ; # #                                       ",
"                            o ; ; ; : : : : : ; : : : : : ; ; @ @                                   ",
"                          o o o ; ; > > > > < 3 > > > : > ; o ; o                                   ",
"                        ; o : ; ; ; : > > 3 3 4 3 < > > : ; ; ; ; ;                                 ",
"                      @ ; ; ; : : ; ; < 3 3 4 4 4 3 3 > : ; : : ; o o ;                             ",
"                    @ @ o ; : : > : ; > 3 4 4 4 4 3 < > : : : : : : ; o #                           ",
"                  @ o ; ; ; : : ; ; ; > 3 4 4 4 4 3 > : ; ; : > : ; o o #                           ",
"                @ # ; ; ; : : : ; ; ; > 4 4 4 4 < < : ; ; : : > > : > ; # # #                       ",
"              @ @ # ; : : : ; ; ; ; ; > 3 4 4 < : : ; ; ; ; : > > : : : ; # # o                     ",
"              @ # ; : : > : : ; ; ; ; > 3 3 3 > : ; ; ; : : > : > < > > ; # # #                     ",
"              @ o # ; > > : : : ; ; ; > > > > > ; ; ; : : : : > > > 2 > : o o o                     ",
"              @ # # : : > 2 : : ; ; ; ; : : : ; ; ; ; : : > > > > 2 2 2 > ; ; o                     ",
"              @ # # ; > > > > : > ; ; ; : ; ; ; ; ; : > > > > > > 2 < > ; o ; o                     ",
"              @ o ; : : 2 2 2 : > ; > ; ; ; : : ; : > > > < > > > > > > ; o o o                     ",
"              @ # ; > 2 2 2 > > > ; > : : : : : : : > 2 2 4 2 2 < > ; > @ o o o                     ",
"              @ # ; : 2 2 2 > : > > > > > > > > > > > 2 2 2 3 2 > ; o o o X . .                     ",
"              o o ; ; 2 2 2 2 > > > < > > > > > > > > > > 2 < > : ; @ o o X .                       ",
"              o o o ; : > > 2 2 < 3 > 3 > 3 2 > > > > : ; : : ; ; @ o o X .                         ",
"              X X @ # : : 2 2 2 3 3 2 2 2 2 2 2 > : : ; o : ; o @ o o X .                           ",
"              . X o @ # % : > 2 2 2 2 2 2 2 2 2 > ; ; ; o o ; o o o . .                             ",
"                X X o @ # ; : > : > : > : : : : ; ; o o X o o o o . .                               ",
"                  X X X o @ o : : o ; # ; # : : o ; o o . . X X X X                                 ",
"                    X . o o o o o ; o o o o # o # o o o o X X X O                                   ",
"                      X o o o o o o o o o o o o o @ # & 2 % $ $ @                                   ",
"                        X X X X X o o o X X X . X @ , 8 q 0 5 * &                                   ",
"                          X . X X X o o . X X . X % 6 l P m u 7 =                                   ",
"                            . . . . . O O O + @ $ 1 e K ' K s 9 -                                   ",
"                                      O $ $ * = 8 e C ! ' F s 9 -                                   ",
"                                        * = 7 e V J ' { / C r 9 -                                   ",
"                                        - 9 w M ! &.&.&.{ K s 9 7                                   ",
"                                        9 9 a D &.2.2.2.o.R h w 9                                   ",
"                                        9 w h P o.6.q.8.-.^ M w 0                                   ",
"                                        r h M } -.9.q.9.-./ M a w                                   ",
"                                      h M M R ` 2.9.q.2.#./ M a w                                   ",
"                                    r z P ` +.1.2.q.6.-. .W M a w                                   ",
"                                  r h V / #.8.9.q.2.6.=. .K c a w                                   ",
"                                h h z P ` 2.8.9.9.2.2.-.| W z r 0                                   ",
"                              h z P } } o.#.2.2.5.q.q.6.-.W M a w                                   ",
"                            r h L / #.#.=.&.+.>.2.9.q.2.>./ M a w                                   ",
"                          0 w h L +.2.8.-.+.-.2.9.9.9.2.#.R M a w                                   ",
"                          0 w h P +.8.6.,.-.>.2.9.1.#.` R D z s                                     ",
"                          0 r h K o.8.q.q.2.2.5.9.>.` P M h h                                       ",
"                          w w h P  .5.q.q.9.9.q.8.#.R M s w                                         ",
"                          0 r h L +.5.9.q.9.q.q.q.+.R h w 0                                         "
};
