/* XPM */
static char *Sprite_1[] = {
/* columns rows colors chars-per-pixel */
"64 64 7 1 ",
"  c black",
". c #3A4466",
"X c #5A6988",
"o c #5FCDE4",
"O c #8B9BB4",
"+ c #CBDBFC",
"@ c white",
/* pixels */
"++oo@@++++++++++++oo@@@@++++++++++++oo++++++++++++++++++++++++++",
"++oo@@++++++++++++oo@@@@++++++++++++oo++++++++++++++++++++++++++",
"++++oo@@++++++++++++oo@@@@++++++++++++oo++++++++++++++++++++++++",
"++++oo@@++++++++++++oo@@@@++++++++++++oo++++++++++++++++++++++++",
"++++++oo++++++++++++oooo@@@@++++++++++++oo++++++++++++++++++++++",
"++++++oo++++++++++++oooo@@@@++++++++++++oo++++++++++++++++++++++",
"++++++++oo++++++++++++oooo@@@@++++++++++++oo++++++++++++++++++++",
"++++++++oo++++++++++++oooo@@@@++++++++++++oo++++++++++++++++++++",
"++++++++++++++++++++++++oooo@@@@+++      +++oo+++++      +++++++",
"++++++++++++++++++++++++oooo@@@@+++      +++oo+++++      +++++++",
"++++++++++++++++++++++++++oooo@@+++      +++oooo+++      +++++++",
"++++++++++++++++++++++++++oooo@@   ...             ...   +++++++",
"++++++++++++++++++++++++++++oooo   ...             ...   +++++++",
"++++++++++++++++++++++++++++oooo   ...             ...   +++++++",
"+++++++++++++++++++++++++++++   XXX      ..........      +++++++",
"+++++++++++++++++++++++++++++   XXX      ..........      +++++++",
"+++++++++++++++++++++++++++++   XXX      ..........      +++++++",
"++++++++++++++++++++++++++   ...XXX   XXX..........XXX   +++++++",
"++++++++++++++++++++++++++   ...XXX   XXX..........XXX   +++++++",
"++++++++++++++++++++++++++   ...XXX   XXX..........XXX   +++++++",
"++++++@@++++++@@++++++++++   ......XXXXXXXXXX   ......   o++++++",
"++++++@@++++++@@++++++++++   ......XXXXXXXXXX   ......   o++++++",
"++++++oo@@@@++oo@@++++++++   ......XXXXXXXXXX   ......   ooo++++",
"++++++oo@@@@++oo@@++++++++   ......XXXXXXXXXX   ......   ooo++++",
"++++++++oo@@@@++oo@@+++      ......   @@@       ...      +oooo++",
"++++++++oo@@@@++oo@@+++      ......   @@@       ...      +oooo++",
"++++++++++oo@@@@++oo@@+      ......   @@@       ...      +++oooo",
"++++++++++oo@          ...      OOOOOO       XXXXXXXXX...+++oooo",
"++++++++++++o          ...      OOOOOO       XXXXXXXXX...+++++oo",
"++++++++++++o          ...      OOOOOO       XXXXXXXXX...+++++oo",
"oo++++++++   ...   .......XXX......OOOOOOOOOOOOOOOO      +++++++",
"oo++++++++   ...   .......XXX......OOOOOOOOOOOOOOOO      +++++++",
"++++++++++   ...   .......XXX......OOOOOOOOOOOOOOOO      +++++++",
"+++++++   XXX...XXX....XXXXXX...OOOOOOXXXXXXXOOOOOOXXX   +++++++",
"+++++++   XXX...XXX....XXXXXX...OOOOOOXXXXXXXOOOOOOXXX   +++++++",
"+++++++   XXX...XXX....XXXXXX...OOOOOOXXXXXXXOOOOOOXXX   +++++++",
"+++++++XXX...XXXXXXXXXX...XXXXXX...XXXXXX                +++++++",
"+++++++XXX...XXXXXXXXXX...XXXXXX...XXXXXX                +++++++",
"+++++++XXX...XXXXXXXXXX...XXXXXX...XXXXXX                +++++++",
"+++++++XXX   XXX...XXXXXXX   ...XXX...XXXXXXX   ...   ++++++++++",
"+++++++XXX   XXX...XXXXXXX   ...XXX...XXXXXXX   ...   ++++++++++",
"+++++++XXX   XXX...XXXXXXX   ...XXX...XXXXXXX   ...   ++++++++++",
"+++++++XXX   XXX...XXXXXXX   ...XXX...XXXXXXX   ...   ++++++++++",
"+++++++...      OOO    XXX   XXX......OOOXXXX...   +++++++++++++",
"+++++++...      OOO    XXX   XXX......OOOXXXX...   +++++++++++++",
"+++++++...      OOO    XXX   XXX......OOOXXXX...   +++++++++++++",
"+++++++...   XXXOOO          OOOXXX   OOO    XXX   +++++++++++++",
"+++++++...   XXXOOO          OOOXXX   OOO    XXX   +++++++++++++",
"+++++++...   XXXOOO          OOOXXX   OOO    XXX   +@@++++++++++",
"+++++++      XXXXXX          XXXOOO      XXXX   ++++@@++++++++++",
"+++++++      XXXXXX          XXXOOO      XXXX   ++++++@@++++++++",
"+++++++      XXXXXX          XXXOOO      XXXX   ++++++@@++++++++",
"++++++++++   XXX       XXX      OOO      XXXX   ++++++oo@@++++++",
"++++++++++   XXX       XXX      OOO      XXXX   ++++++oo@@++++++",
"++++++++++   XXX       XXX      OOO      XXXX   ++++++++oo@@++++",
"++++++++++++++++++++++++++++++++++++++++++++++oo++++++++oo@@++++",
"++++++++++++++@@++++++++++++++++++++++++++++++++oo++++++++oo@@++",
"++++++++++++++@@++++++++++++++++++++++++++++++++oo++++++++oo@@++",
"++++++++++++++++@@++++++++++++++++++++++++++++++++++++++++++oo@@",
"++++++++++++++++@@++++++++++++++++++++++++++++++++++++++++++oo@@",
"@@++++++++++++++@@@@++++++++++++oo++++++++++++++++++++++++++++oo",
"@@++++++++++++++@@@@++++++++++++oo++++++++++++++++++++++++++++oo",
"oo@@++++++++++++oo@@@@++++++++++++oo++++++++++++++++++++++++++++",
"oo@@++++++++++++oo@@@@++++++++++++oo++++++++++++++++++++++++++++"
};
