/* XPM */
static char *Sprite_4[] = {
/* columns rows colors chars-per-pixel */
"64 64 7 1 ",
"  c black",
". c #3A4466",
"X c #5A6988",
"o c #5FCDE4",
"O c #8B9BB4",
"+ c #CBDBFC",
"@ c white",
/* pixels */
"++oo@@++++++++++++oo@@@@++++++++++++oo++++++++++++++++++++++++++",
"++oo@@++++++++++++oo@@@@++++++++++++oo++++++++++++++++++++++++++",
"++++oo@@++++++++++++oo@@@@++++++++++++oo++++++++++++++++++++++++",
"++++oo@@++++++++++++oo@@@@++++++++++++oo++++++++++++++++++++++++",
"++++++oo++++         ooo@@@@++++++++++++oo+          +++++++++++",
"++++++oo++++         ooo@@@@++++++++++++oo+          +++++++++++",
"++++++++oo++         +oooo@@@@++++++++++++o          +++++++++++",
"++++++++oo++   XXXXXX                      XXXXXXX   +++++++++++",
"++++++++++++   XXXXXX                      XXXXXXX   +++++++++++",
"++++++++++++   XXXXXX                      XXXXXXX   +++++++++++",
"++++++++++++   XXXXXX                      XXXXXXX   +++++++++++",
"++++++++++++   ....  ......................   ....   +++++++++++",
"++++++++++++   ....  ......................   ....   +++++++++++",
"++++++++++++   ....  XXXXX.............XXXX   ....   +++++++++++",
"++++++++++++   ....  XXXXX.............XXXX   ....   +++++++++++",
"++++++++++++   ....  XXXXX.............XXXX   ....   +++++++++++",
"++++++++++++   ....  XXXXX.............XXXX   ....   o++++++++++",
"++++++++++++   ....  XXXXX.............XXXX   ....   o++++++++++",
"+++++++++++++++    XXXXXXXXXX.......XXXXXXXXXX    ++oooo++++++++",
"+++++++++++++++    XXXXXXXXXX.......XXXXXXXXXX    ++oooo++++++++",
"++++++@@++++++@    XXXXXXXXXX.......XXXXXXXXXX    ++++oooo++++++",
"++++++@@++++++@      @@@@@   .......   @@@@       ++++oooo++++++",
"++++++oo@@@@++o      @@@@@   .......   @@@@       ++++++oooo++++",
"++++++oo@@@@++o      @@@@@   .......   @@@@       ++++++oooo++++",
"++++++++oo@@   XXXXXX     ...XXXXXXX...    XXXXXXX   +++++oooo++",
"++++++++oo@@   XXXXXX     ...XXXXXXX...    XXXXXXX   +++++oooo++",
"++++++++++oo   XXXXXX     ...XXXXXXX...    XXXXXXX   +++++++oooo",
"++++++++++oo   XXXXXX     ...XXXXXXX...    XXXXXXX   +++++++oooo",
"++++++++++++       XXXXXXXOOO       OOOXXXXXXX       +++++++++oo",
"++++++++++++       XXXXXXXOOO       OOOXXXXXXX       +++++++++oo",
"oo++++++++++       XXXXXXXOOO       OOOXXXXXXX       +++++++++++",
"oo++++++++++   XXXXXX     OOOXXXXXXXOOO    XXXXXXX   +++++++++++",
"++++++++++++   XXXXXX     OOOXXXXXXXOOO    XXXXXXX   +++++++++++",
"++++++++++++   XXXXXX     OOOXXXXXXXOOO    XXXXXXX   +++++++++++",
"++++++++++++   XXXXXX     OOOXXXXXXXOOO    XXXXXXX   +++++++++++",
"++++++++++++       XX                      XXX       +++++++++++",
"++++++++++++       XX                      XXX       +++++++++++",
"++++++++++++       XX                      XXX       +++++++++++",
"++++++++++++   ......XXXXX   XXXXXXX   XXXX.......   +++++++++++",
"++++++++++++   ......XXXXX   XXXXXXX   XXXX.......   +++++++++++",
"++++++++++++   ......XXXXX   XXXXXXX   XXXX.......   +++++++++++",
"++++++++++++   ......XXXXX   XXXXXXX   XXXX.......   +++++++++++",
"++++++++++++   ....XX.....XXXXXXXXXXXXX....XXX....   +++++++++++",
"++++++++++++   ....XX.....XXXXXXXXXXXXX....XXX....   +++++++++++",
"++++++++++++   ....XX.....XXXXXXXXXXXXX....XXX....   +++++++++++",
"+++++++++++++++    XXOOOOO   XXXXXXX   OOOOXXX    ++++++++++++++",
"+++++++++++++++    XXOOOOO   XXXXXXX   OOOOXXX    ++++++++++++++",
"+++++++++++++++    XXOOOOO   XXXXXXX   OOOOXXX    ++++++++++++++",
"+++++++++++++++      XXXXXOOO       OOOXXXX       ++@@++++++++++",
"+++++++++++++++      XXXXXOOO       OOOXXXX       ++@@++++++++++",
"+++++++++++++++      XXXXXOOO       OOOXXXX       ++++@@++++++++",
"+++++++++++++++      XXXXXOOO       OOOXXXX       ++++@@++++++++",
"+++++++++++++++    XX     OOO       OOO    XXX    ++++oo@@++++++",
"+++++++++++++++    XX     OOO       OOO    XXX    ++++oo@@++++++",
"+++++++++++++++    XX     OOO       OOO    XXX    ++++++oo@@++++",
"++++++++++++++++++++++++++++++++++++++++++++++oo++++++++oo@@++++",
"++++++++++++++@@++++++++++++++++++++++++++++++++oo++++++++oo@@++",
"++++++++++++++@@++++++++++++++++++++++++++++++++oo++++++++oo@@++",
"++++++++++++++++@@++++++++++++++++++++++++++++++++++++++++++oo@@",
"++++++++++++++++@@++++++++++++++++++++++++++++++++++++++++++oo@@",
"@@++++++++++++++@@@@++++++++++++oo++++++++++++++++++++++++++++oo",
"@@++++++++++++++@@@@++++++++++++oo++++++++++++++++++++++++++++oo",
"oo@@++++++++++++oo@@@@++++++++++++oo++++++++++++++++++++++++++++",
"oo@@++++++++++++oo@@@@++++++++++++oo++++++++++++++++++++++++++++"
};
