/* XPM */
static char *Sprite_5[] = {
/* columns rows colors chars-per-pixel */
"64 64 7 1 ",
"  c black",
". c #3A4466",
"X c #5A6988",
"o c #5FCDE4",
"O c #8B9BB4",
"+ c #CBDBFC",
"@ c white",
/* pixels */
"++oo@@++++++++++++oo@@@@++++++++++++oo++++++++++++++++++++++++++",
"++oo@@++++++++++++oo@@@@++++++++++++oo++++++++++++++++++++++++++",
"++++oo@@++++++++++++oo@@@@++++++++++++oo++++++++++++++++++++++++",
"++++oo@@++++++++++++oo@@@@++++++++++++oo++++++++++++++++++++++++",
"++++++oo++++++++++++oooo@@@@++++++++++++oo++++++++++++++++++++++",
"++++++oo++++++++++++oooo@@@@++++++++++++oo++++++++++++++++++++++",
"++++++++oo++++++++++++oooo@@@@++++++++++++oo++++++++++++++++++++",
"++++++++oo++++++++++++oooo@@@@++++++++++++oo++++++++++++++++++++",
"+++++++      ++++++++++      @@@++++++++++++oo++++++++++++++++++",
"+++++++      ++++++++++      @@@++++++++++++oo++++++++++++++++++",
"+++++++      ++++++++++      o@@++++++++++++oooo++++++++++++++++",
"+++++++   ...             ...   ++++++++++++oooo++++++++++++++++",
"+++++++   ...             ...   @@++++++++++++oooo++++++++++++++",
"+++++++   ...             ...   @@++++++++++++oooo++++++++++++++",
"+++++++      ..........      XXX   @++++++++++++oooo++++++++++++",
"+++++++      ..........      XXX   @++++++++++++oooo++++++++++++",
"+++++++      ..........      XXX   o@@++++++++++++oooo++++++++++",
"+++++++   XXX..........XXX   XXX...   ++++++++++++oooo++++++++++",
"+++++++   XXX..........XXX   XXX...   ++++++++++++++oooo++++++++",
"+++++++   XXX..........XXX   XXX...   ++++++++++++++oooo++++++++",
"++++++@   ......   XXXXXXXXXX......   oo++++++++++++++oooo++++++",
"++++++@   ......   XXXXXXXXXX......   oo++++++++++++++oooo++++++",
"++++++o   ......   XXXXXXXXXX......   oo++++++++++++++++oooo++++",
"++++++o   ......   XXXXXXXXXX......   oo++++++++++++++++oooo++++",
"+++++++      ...       @@@   ......      +++++++++++++++++oooo++",
"+++++++      ...       @@@   ......      +++++++++++++++++oooo++",
"+++++++      ...       @@@   ......      +++++++++++++++++++oooo",
"+++++++...XXXXXXXXX       OOOOOO      ...          +++++++++oooo",
"+++++++...XXXXXXXXX       OOOOOO      ...          +++++++++++oo",
"+++++++...XXXXXXXXX       OOOOOO      ...          +++++++++++oo",
"oo+++++      OOOOOOOOOOOOOOOO......XXX.......   ...   ++++++++++",
"oo+++++      OOOOOOOOOOOOOOOO......XXX.......   ...   ++++++++++",
"+++++++      OOOOOOOOOOOOOOOO......XXX.......   ...   ++++++++++",
"+++++++   XXXOOOOOOXXXXXXXOOOOOO...XXXXXX....XXX...XXX   +++++++",
"+++++++   XXXOOOOOOXXXXXXXOOOOOO...XXXXXX....XXX...XXX   +++++++",
"+++++++   XXXOOOOOOXXXXXXXOOOOOO...XXXXXX....XXX...XXX   +++++++",
"+++++++                XXXXXX...XXXXXX...XXXXXXXXXX...XXX+++++++",
"+++++++                XXXXXX...XXXXXX...XXXXXXXXXX...XXX+++++++",
"+++++++                XXXXXX...XXXXXX...XXXXXXXXXX...XXX+++++++",
"++++++++++   ...   XXXXXXX...XXX...   XXXXXXX...XXX   XXX+++++++",
"++++++++++   ...   XXXXXXX...XXX...   XXXXXXX...XXX   XXX+++++++",
"++++++++++   ...   XXXXXXX...XXX...   XXXXXXX...XXX   XXX+++++++",
"++++++++++   ...   XXXXXXX...XXX...   XXXXXXX...XXX   XXX+++++++",
"+++++++++++++   ...XXXXOOO......XXX   XXX    OOO      ...+++++++",
"+++++++++++++   ...XXXXOOO......XXX   XXX    OOO      ...+++++++",
"+++++++++++++   ...XXXXOOO......XXX   XXX    OOO      ...+++++++",
"+++++++++++++   XXX    OOO   XXXOOO          OOOXXX   ...+++++++",
"+++++++++++++   XXX    OOO   XXXOOO          OOOXXX   ...+++++++",
"+++++++++++++   XXX    OOO   XXXOOO          OOOXXX   ...+++++++",
"++++++++++++++++   XXXX      OOOXXX          XXXXXX      +++++++",
"++++++++++++++++   XXXX      OOOXXX          XXXXXX      +++++++",
"++++++++++++++++   XXXX      OOOXXX          XXXXXX      +++++++",
"++++++++++++++++   XXXX      OOO      XXX       XXX   oo@@++++++",
"++++++++++++++++   XXXX      OOO      XXX       XXX   oo@@++++++",
"++++++++++++++++   XXXX      OOO      XXX       XXX   ++oo@@++++",
"++++++++++++++++++++++++++++++++++++++++++++++oo++++++++oo@@++++",
"++++++++++++++@@++++++++++++++++++++++++++++++++oo++++++++oo@@++",
"++++++++++++++@@++++++++++++++++++++++++++++++++oo++++++++oo@@++",
"++++++++++++++++@@++++++++++++++++++++++++++++++++++++++++++oo@@",
"++++++++++++++++@@++++++++++++++++++++++++++++++++++++++++++oo@@",
"@@++++++++++++++@@@@++++++++++++oo++++++++++++++++++++++++++++oo",
"@@++++++++++++++@@@@++++++++++++oo++++++++++++++++++++++++++++oo",
"oo@@++++++++++++oo@@@@++++++++++++oo++++++++++++++++++++++++++++",
"oo@@++++++++++++oo@@@@++++++++++++oo++++++++++++++++++++++++++++"
};
