/* XPM */
static char *_ef8618a23de45ca92d9be983808ce65Dkp1fna09oRzAiuz[] = {
/* columns rows colors chars-per-pixel */
"30 30 6 1 ",
"  c None",
". c #3E734E",
"X c #7AB055",
"o c #4D9262",
"O c #CBDBFC",
"+ c white",
/* pixels */
"                              ",
"                              ",
"                              ",
"                              ",
"             ++               ",
"           ++++++             ",
"          ++++++++            ",
"         ++++++++O.           ",
"        .+++++++OOo.          ",
"        .O++OOOOOo..          ",
"       .oXOOXooooo.+.         ",
"      .++ooo++o....+..        ",
"      .O+oo++++++++O..        ",
"      .oO++++++++OOo.+.       ",
"     .ooXO++++OOOoo..+..      ",
"    .++ooo+OOOXooo...++.      ",
"    .O++oo+oooo....oo+O.      ",
"    .XO++++oooooooo+++O..     ",
"    .oX+++Ooo+o++o++++o..     ",
"    .oXO++++++++++++++o+.     ",
"   .+.oXOOOOO++++OOOO+.+..    ",
"   .O+.+ooooXO+++Xooo++O..    ",
"   .oO++....oo++o...++Oo..    ",
"   .ooOO+ooo.++++.++OOo..     ",
"    .oooo+++OOOOO+OOoo...     ",
"     .o..oooooooooo.....      ",
"      .................       ",
"          .........           ",
"                              ",
"                              "
};
