/* XPM */
static char *Sprite_2[] = {
/* columns rows colors chars-per-pixel */
"64 64 7 1 ",
"  c #43403E",
". c #595652",
"X c #696A6A",
"o c #847E87",
"O c #5FCDE4",
"+ c #CBDBFC",
"@ c white",
/* pixels */
"++......XXXX............................  +++++  .............++",
"++......XXXX............................  +++++  .............++",
"..ooooooooooXXXXXXXXXXXXXXXXXXXXXXXX........     ..XXXXXXXoooo..",
"..ooooooooooXXXXXXXXXXXXXXXXXXXXXXXX........     ..XXXXXXXoooo..",
"..ooooooooooooooooooooooooooooooooooXXXXXXXX.  ..XXXoooooooooo..",
"..ooooooooooooooooooooooooooooooooooXXXXXXXX.  ..XXXoooooooooo..",
"..ooooooooooooooooooooooooooooooooooooXXXXXX...XXXXooooooooooo..",
"..ooooooooooooooooooooooooooooooooooooXXXXXX...XXXXooooooooooo..",
"..oooooooooooooXXXXXXXXXXXooooooooooooooXXXX...XXXXoooXXXXoooo..",
"..oooooooooooooXXXXXXXXXXXooooooooooooooXXXX...XXXXoooXXXXoooo..",
"..oooooooooooooooooXXXooooooooooooooooXXXX.. ....XXXXXXXoooooo..",
"..oooooooooooooooooXXXooooooooooooooooXXXX.. ....XXXXXXXoooooo..",
"..ooXXXXXXXXooooooooooooooooooXXXXXXXX....     .......XXXXXXoo..",
"..ooXXXXXXXXooooooooooooooooooXXXXXXXX....     .......XXXXXXoo..",
"OO...........XXXXXXXXXXXXX............  .......  .............@@",
"OO...........XXXXXXXXXXXXX............  .......  .............@@",
"++..  ...... .............    ..............XXX...........  ..OO",
"++..  ...... .............    ..............XXX...........  ..OO",
"..oo..XXXXXX.....     ........XXXXXXXXXX..XXXXXXXXXooooooo..oo..",
"..oo..XXXXXX.....     ........XXXXXXXXXX..XXXXXXXXXooooooo..oo..",
"..oooooooooooXXXX.. ..XXXXXXooooooooooXXXXXXXooooooooooooooooo..",
"..oooooooooooXXXX.. ..XXXXXXooooooooooXXXXXXXooooooooooooooooo..",
"..oooooooooooooXXXX...XXXXooooooooooooooXXoooooooooooooooooooo..",
"..oooooooooooooXXXX...XXXXooooooooooooooXXoooooooooooooooooooo..",
"..oooooooooooXXXXXX...XXXXoooooooooooooooooooooooooooooooooooo..",
"..oooooooooooXXXXXX...XXXXoooooooooooooooooooooooooooooooooooo..",
"..ooooooooXXXXXXXXX.  ..XXXXoooooooooooooooooooooooooooooooooo..",
"..ooooooooXXXXXXXXX.  ..XXXXoooooooooooooooooooooooooooooooooo..",
"..oo..XXXXXXXXXXX..     ..XXXXXXXXXXXXXXoooooooXXXXXXXXXXX..oo..",
"..oo..XXXXXXXXXXX..     ..XXXXXXXXXXXXXXoooooooXXXXXXXXXXX..oo..",
"++...............   ....  ..............XXXXXXX...............++",
"++...............   ....  ..............XXXXXXX...............++",
"++..................XXXX.......................  .............++",
"++..................XXXX.......................  .............++",
"..oooooooooooXXXXXXXXXXX..XXXXXXXXXXXX....     ..XXXXXXXXXoooo..",
"..oooooooooooXXXXXXXXXXX..XXXXXXXXXXXX....     ..XXXXXXXXXoooo..",
"..ooooooooooooooooooooooXXXXooooooXXXXXXXX.. ..XXXXooooooooooo..",
"..ooooooooooooooooooooooXXXXooooooXXXXXXXX.. ..XXXXooooooooooo..",
"..ooooooooooooooooooooooooXXooooooooXXXXXX...XXXXXXooooooooooo..",
"..ooooooooooooooooooooooooXXooooooooXXXXXX...XXXXXXooooooooooo..",
"..ooooooXXooooooooooooooooooooooooooXXXXXX...XXXXXXooooooooooo..",
"..ooooooXXooooooooooooooooooooooooooXXXXXX...XXXXXXooooooooooo..",
"..ooooXXXXooooooooooooooooooooooooooXXXXXX.. ..XXXXXoooooooooo..",
"..ooooXXXXooooooooooooooooooooooooooXXXXXX.. ..XXXXXoooooooooo..",
"..ooXXXX..XXooooooooooooooooooooXXXXXX....     ....XXXooooXXoo..",
"..ooXXXX..XXooooooooooooooooooooXXXXXX....     ....XXXooooXXoo..",
"OO........XXXXXXXXX...................  ......................OO",
"OO........XXXXXXXXX...................  ......................OO",
"++..  ..................................XXXXXXXXXXX.......  ..OO",
"++..  ..................................XXXXXXXXXXX.......  ..OO",
"..oo........     ..XXX....XXXXoooooooooooooooooooooooooooo..oo..",
"..oo........     ..XXX....XXXXoooooooooooooooooooooooooooo..oo..",
"..ooooXXXXXX.  ..XXoXXXXXXoooooooooooooooooooooooooooooooooooo..",
"..ooooXXXXXX.  ..XXoXXXXXXoooooooooooooooooooooooooooooooooooo..",
"..ooooooXXXX...XXoooXXXXoooooooooooooooooooooooooooooooooooooo..",
"..ooooooXXXX...XXoooXXXXoooooooooooooooooooooooooooooooooooooo..",
"..ooooooXXXX...XXooooooooooooooooooooooooooooooooooooooooooooo..",
"..ooooooXXXX...XXooooooooooooooooooooooooooooooooooooooooooooo..",
"..ooooXXXX.. ..XXooooooooooooooooooooooooooooooooooooooooooooo..",
"..ooooXXXX.. ..XXooooooooooooooooooooooooooooooooooooooooooooo..",
"..oo......   ....XXXXXXXXXXXXXXXXXXXXXooooXXXXXoooooXXXXXX..oo..",
"..oo......   ....XXXXXXXXXXXXXXXXXXXXXooooXXXXXoooooXXXXXX..oo..",
"++........+++.................................................++",
"++........+++.................................................++"
};
