/* XPM */
static char *_6cc56ada0634031f8635a4068643018C9KbZidTmgywOHaS[] = {
/* columns rows colors chars-per-pixel */
"64 64 6 1 ",
"  c #CBDBFC",
". c #847E87",
"X c #5FCDE4",
"o c white",
"O c #9BADB7",
"+ c #696A6A",
/* pixels */
"   ..   ...  ......  ..Xo....    ......  ..  .....   ..Xoo..... ",
" ..OO..+...+.OOOOO.+...+.OOOO.....OOOO.+...+.OOOOO.+...+..OOOO. ",
".OOOOOO+++++.OOOO.+++++.+.OO..+++.OOOO.+++++.OOOO.+++++.+.OOO.+ ",
"O+....+.OOO.+....+..+..O.+....+..+....+.OOO.+....+..+..O.+.OO.+.",
"O.+++++.....+++++.O.+.OOO.+..+.OO.+++++.....+++++.O.+.OOO.+..+.O",
"O.+++++++++++...+..+.OOOOO.++.OOO.+++++++++++...+..+.OOOOO.++.OO",
".O.++.....+..OO.++++.OOOO..+.OOOOO.++.....+..OO.++++.OOOO..+.OOO",
"OO.+.OOOO.+.OOO+....+.O..+++.OOOOO.+.OOOO.+.OOO+....+.O..+++.OOO",
"OOO.+.OOOO.+.OO+.OOO.+.++...+.OOOOO.+.OOOO.+.OO+.OOO.+.++...+.OO",
"OOO.++.OO.+.+..+OOOOO.+..OOO.+.OOOO.++.OO.+.+..+OOOOO.+..OOO.+.O",
"O..+..+..+.O.+++.OOOOO+.OOOOO.+....+..+..+.O.+++.OOOOO+.OOOOO.+.",
".++.OO.++.OOO.+++.O...+OOOOOO++++++.OO.++.OOO.+++.O...+OOOOOO+++",
"O.+.OOO+.OOOO.+++..++++.OOOO.+....+.OOO+.OOOO.+++..++++.OOOO.+.O",
"O.+OOOO+OOOOO.+++.+....+....++.OO.+OOOO+OOOOO.+++.+....+....++.O",
".++..O.+.OOOO.+.O+.OOO.++++++++..++..O.+.OOOO.+.O+.OOO.++++++++.",
"O..++.+++....+.OO+OOOOO.+..+...++..++.+++....+.OO+OOOOO.+..+...+",
"OOOOO+++.++++.OOO+.OOO.+.O.+OOO+.OOOO+++.++++.OOO+.OOO.+.O.+OOO+",
"OOOOOO+.O..+.OOOO.+.O.+.OOO+OO+.OOOOOO+.O..+.OOOO.+.O.+.OOO+OO+.",
"OOOOO.+.OO.++.OO.+++.+.OOOO+.O+OOOOOO.+.OO.++.OO.+++.+.OOOO+.O+.",
"OO....+.OO.++....+..++OOOO.+.O+.OO....+.OO.++....+..++OOOO.+.O+.",
"..++++++...++++++.OO.+.OO.+++.++..++++++...++++++.OO.+.OO.+++.++",
"+++.....+++..++++.OO.++...++++..+++.....+++..++++.OO.++...++++..",
"..+.OOO.+.OOO.++++..++++++..+.OO..+.OOO.+.OOO.++++..++++++..+.O.",
"OO.+OOOO+.....+..+++....+.O.+.OOOO.+OOOO+.....+..+++....+.O.+.O.",
"OO.+OOO.+++++++O.+..OOO.+OOO.+.OOO.+OOO.+++++++O.+..OOO.+OOO.+.O",
"OO.+....+++...+..+.OOOOO+.O..++.OO.+....+++...+..+.OOOOO+.O..++.",
"O.+.++++.++.OO.+++.OOOOO.+.+++++..+.++++.++.OO.+++.OOOOO.+.++++.",
".+.OO.+.O.+.OOO+O+.OOOOO.++..+++++.OO.+.O.+.OOO+O+.OOOOO.++..++.",
"++....+OOO.+OO.+OO+......+.OO..+++....+OOO.+OO.+OO+......+.OO..+",
"++++++.O...+..++..+++++++.OOOOO.++++++.O...+..++..+++++++.OOOOO.",
"......+.++++++..++++...+.OO.OOO.+.....+.++++++..++++...+.OO.OOO.",
"OOOOOO.+....+.OO..++.O.+..OO..O.+.OOOO.+....+.OO..++.O.+..OO..O.",
"OOOOOO.+.O.+.OOOOO.+.O.+.OOOO..+OOOOOO.+.O.+.OOOOO.+.O.+.OOOO..+",
"OOOOOO.+...+.OOOOO.+...+..OOO.+..OOOOO.+...+.OOOOO.+...+..OOO.+.",
"O.OOOO.+++++.OOOO.+++++.+..O..+++.OOOO.+++++.OOOO.+++++.+..O..+.",
".+....+.OOO.+....+..+..O.+....+..+....+.OOO.+....+..+..O.+....+.",
"O.+++++.....+++++.O.+.OOO.+..+.OO.+++++.....+++++.O.+.OOO.+..+.O",
"O.+++++++++++...+..+.OOOOO.++.OOO.+++++++++++...+..+.OOOOO.++.OO",
"OO.++.....+..OO.++++.OOOO..+.OOOOO.++.....+..OO.++++.OOOO..+.OOO",
"OO.+.OOOO.+.OOO+....+.O..+++.OOOOO.+.OOOO.+.OOO+....+.O..+++.OOO",
"OOO.+.OOOO.+.OO+.OOO.+.++...+.OOOOO.+.OOOO.+.OO+.OOO.+.++...+.OO",
"OOO.++.OO.+.+..+OOOOO.+..OOO.+.OOOO.++.OO.+.+..+OOOOO.+..OOO.+.O",
"O..+..+..+.O.+++.OOOOO+.OOOOO.+....+..+..+.O.+++.OOOOO+.OOOOO.+.",
".++.OO.++.OOO.+++.O...+OOOOOO++++++.OO.++.OOO.+++.O...+OOOOOO++O",
"O.+.OOO+.OOOO.+++..++++.OOOO.+....+.OOO+.OOOO.+++..++++.OOOO.+.O",
"O.+OOOO+OOOOO.+++.+....+....++.OO.+OOOO+OOOOO.+++.+....+....++.O",
".++..O.+.OOOO.+.O+.OOO.++++++++..++..O.+.OOOO.+.O+.OOO.++++++++.",
"O..++.+++....+.OO+OOOOO.+..+...++..++.+++....+.OO+OOOOO.+..+...+",
"OOOOO+++.++++.OOO+.OOO.+.O.+OOO+.OOOO+++.++++.OOO+.OOO.+.O.+OOO+",
"OOOOOO+.O..+.OOOO.+.O.+.OOO+OO+.OOOOOO+.O..+.OOOO.+.O.+.OOO+OO+.",
"OOOOO.+.OO.++.OO.+++.+.OOOO+.O+OOOOOO.+.OO.++.OO.+++.+.OOOO+.O+.",
"OO....+.OO.++....+..++OOOO.+.O+.OO....+.OO.++....+..++OOOO.+.O+.",
"..++++++...++++++.OO.+.OO.+++.++..++++++...++++++.OO.+.OO.+++.++",
"+++.....+++..++++.OO.++...++++..+++.....+++..++++.OO.++...++++..",
"..+.OOO.+.OOO.++++..++++++..+.OO..+.OOO.+.OOO.++++..++++++..+.OO",
"OO.+OOOO+.....+..+++....+.O.+.OOOO.+OOOO+.....+..+++....+.O.+.OO",
"OO.+OOO.+++++++O.+..OOO.+OOO.+.OOO.+OOO.+++++++O.+..OOO.+OOO.+.O",
"OO.+....+++...+..+.OOOOO+.O..++.OO.+....+++...+..+.OOOOO+.O..++.",
"O.+.++++.++.OO.+++.OOOOO.+.+++++..+.++++.++.OO.+++.OOOOO.+.++++.",
".+.OO.+.O.+.OOO+O+.OOOOO.++..+++++.OO.+.O.+.OOO+O+.OOOOO.++..++.",
"++....+OOO.+OO.+OO+......+.OO..+++....+OOO.+OO.+OO+......+.OO..+",
"++++++.O...+..++..+++++++.OOOOO.++++++.O...+..++..+++++++.OOOOO.",
"......+.++++++..++++...+.OO.OOO.+.....+.++++++..++++...+.OO.OOO.",
"OOOOOO.+....+.OO..++.O.+.OOO..O.+.OOOO.+....+.OO..++.O.+.OOO..O."
};
