/* XPM */
static char *ezgif_4_c20f8d6aae[] = {
/* columns rows colors chars-per-pixel */
"50 50 104 2 ",
"   c #6B6B6C",
".  c #6F6E70",
"X  c #706F71",
"o  c #737175",
"O  c #767479",
"+  c #79767C",
"@  c #76797C",
"#  c #7B797E",
"$  c #7E7C82",
"%  c #817F86",
"&  c #7B8084",
"*  c #7E848A",
"=  c #7F888C",
"-  c #818087",
";  c #84848C",
":  c #88858F",
">  c #81888D",
",  c #868B92",
"<  c #8A8B94",
"1  c #8C8F98",
"2  c #918F9C",
"3  c #8D939C",
"4  c #90959F",
"5  c #8F97A0",
"6  c #8F9AA3",
"7  c #9197A0",
"8  c #9299A3",
"9  c #929AA3",
"0  c #9198A2",
"q  c #919BA4",
"w  c #929AA4",
"e  c #929BA4",
"r  c #929BA5",
"t  c #9798A7",
"y  c #909DA5",
"u  c #929CA5",
"i  c #929CA6",
"p  c #939CA6",
"a  c #939DA6",
"s  c #929BA5",
"d  c #9798A8",
"f  c #949EA8",
"g  c #959FA9",
"h  c #949FA8",
"j  c #9B9BAB",
"k  c #9A9DAC",
"l  c #9B9FAE",
"z  c #95A0AA",
"x  c #95A1AB",
"c  c #96A1AB",
"v  c #95A2AB",
"b  c #96A2AC",
"n  c #97A2AC",
"m  c #97A3AD",
"M  c #97A4AD",
"N  c #97A4AE",
"B  c #97A5AF",
"V  c #97A6AF",
"C  c #96A2AC",
"Z  c #98A5AF",
"A  c #98A5AF",
"S  c #97A6B0",
"D  c #9CA0B1",
"F  c #98A6B0",
"G  c #98A7B1",
"H  c #98A6B1",
"J  c #99A8B2",
"K  c #99A8B3",
"L  c #99A9B3",
"P  c #9AA9B3",
"I  c #9AA9B4",
"U  c #9AAAB4",
"Y  c #9AABB5",
"T  c #9AABB6",
"R  c #9AACB5",
"E  c #9BACB6",
"W  c #9BACB7",
"Q  c #9BADB7",
"!  c #9AABB5",
"~  c #9BAEB8",
"^  c #9CAEB8",
"/  c #9CAEB9",
"(  c #9CAFB9",
")  c #9CAEB8",
"_  c #9DB0BA",
"`  c #9DB0BA",
"'  c #A5A5AC",
"]  c #A4AABD",
"[  c #B8B8BD",
"{  c #85BBC7",
"}  c #87BDC9",
"|  c #ADB3C9",
" . c #B2BCD4",
".. c #B5BFD9",
"X. c #B6BFD9",
"o. c #B5C0DA",
"O. c #B6C1DB",
"+. c #B6C2DC",
"@. c #B9C3DD",
"#. c #B9C3DE",
"$. c #BAC4DF",
"%. c #BAC5E0",
"&. c #C8D6F6",
"*. c #E1DFE1",
/* pixels */
"&.#.k 3 X.o.2 % d o.7 < < < 1 o.j * } [ < < k %.%.| ; < < ; D X.: d o.7 < < 1  .+.j * { *.' < < : #.",
"] 3 B U 7 $ o O o # Z ~ Q a O X O O o ; L U 3 $ O + 3 ( ( f O o O o # G ~ Q a + X O O O $ f ( G ; o.",
"3 > 1 1 , $ , 3 > O , < < # + o o $ 3 O ; < % o O O $ 1 1 ; O , 3 > O , < < # + o o $ 3 O ; U a o 3 ",
"x O       o ; ; ; o   X   # 4 + $ x Q 3 O # + # f a O       o ; ; ; o   X   # 4 + $ x Q 3 O - $ # r ",
"8 -     X X o X   o ; < o o O o r ( ( G ;   # f ( G -     X o o X   o ; < o o O o r ( ( G ;   # f ( ",
"f 8 o + 4 7 7 $ o 1 U a O O O O ; G 7 ; o . 1 ( Q ( 8 o + 7 7 7 $ o 1 U a O O O O ; G 7 ; o . < ( Q ",
"( L ; o 3 ~ ( 5 O - G 3 O 8 b 3 O - o O $ # # a ( ( L ; o 3 ( ( 8 O - G 3 O 8 b 3 O - o O $ # # a ( ",
"U Z , X o 3 b $ # # $ + * Q ( ( 3 o $ 3 U B $ # r B B , X o 3 b $ # # $ + * Q ~ ( 3 o $ 3 U b $ # r ",
"3 + O < ; O O # a r O   o 3 L r 8 @ 3 Q Q ( 5 . o O + O < ; O O # a r O   o 3 L r 8 @ 3 Q Q ( 8 . o ",
"3 o # L U & O a Q Q ;     # , o o . 3 Q Q L * o + + o # L U & O a Q Q ;     # , o o . 3 Q Q L - o , ",
"a o , L ( > 3 ( ~ Q ;   . # o % % # o ; ; -   O 8 8 o , L ( > 3 ( ~ Q ;   . # o % % # o ; ; -   O f ",
"; X O % 3 o # a x f $ O r & < U U 3 o   o   X X # # X O - 3 o # a x f $ O r $ < U U 3 o   o   X X # ",
"G 7 < > o   o O O O + r ~ $ 3 Q Q 8 O ; ; o 3 4 o # 4 < > o   o O O O + r ~ & 3 Q Q 8 O ; ; o 3 3 o ",
"Q ( _ Q > o 3 $ o o 8 ( Q ; o 5 8 O - G b @ Q 3 $ x ( ( Q > o 3 % o o 8 ( Q ; o 7 8 O - G x @ Q 3 # ",
"( U B x $ O b b +   ; B 4 o   O O - L ( S O 3 = 3 ( U B x $ O b b +   ; B 4 o   O O - L ( B O 3 = # ",
"a < + + o o 3 7 +   O # + O < ;   3 ( B -   ; & O r < O + o o 3 7 +   O # + O < ;   3 ( S -   ; & o ",
"o . o + O O o o O O       $ U a o o 3 < X     O O o . o + O O o o O +       $ L a o o 3 < X     O O ",
"% O # f Z 3 o $ a f %     . ; $     X . # + X 3 b - O + f Z 3 o $ a f %     . - $     X . # + X 3 < ",
"Q 7 o B _ S @ + $ $ + O ; X . # < < + @ x < o 3 Q Q 7 o B _ S @ + $ $ + o ; X . # < < + @ x < o 3 3 ",
"( 8 o < 8 < X     o o @ < o % a ~ U , $ G 7 # o 3 ( 8 o < 8 < X   . O o @ < o % a ( U , $ G 7 + o < ",
"B - O o o o O   o 3 r # o   ; ~ Q ( z O - O .   o < - O o o o O   o 3 r # o   ; Q Q ( x O - O .   # ",
"$ o 3 8 O O a - o a _ < * * - Z G G a O   - $       o 3 8 O O a - o a _ < * * - B G G a O   - $   + ",
"  X # # O 3 B 7 O , r O * r o # + # # o ; U x < +   X # # O 3 B 7 O , r O * r o + # # # O ; U x < # ",
"O O O O O ; $ o X X o O O o     O O   ; G r Q ~ <   O O O O ; $ o X X o O O o     O O   ; G r Q Q < ",
"b b b b 3 o O $ # o $ b 3 $   o 4 ; o : b x < r ; O 3 b B 3 o O $ # o $ b 1 $   o 4 ; o : B x < r < ",
"( ( ~ ( f o $ 7 + + b ( Q L % o 4 ; X < U ( r % + a Q ~ ( f o $ 7 + + b ( Q L % o 4 ; X < U ( r % O ",
"L b ( ( f o o O X + G ( ( a O . O O o $ 3 L 3 o o $ x ~ ( f o o O o + G ( ( a O . O O o $ 3 L 3 o # ",
"; $ 1 1 ; O , 3 > O , < < # + o o $ 3 O $ < % o O O $ 1 1 ; O , 3 > O , < < # + o o $ 3 O $ < % o $ ",
"8 O       o ; ; ; o   X   # 4 + $ x Q 3 O $ + # f a O       o ; ; ; o   X   # 4 + $ x Q 3 O $ + # a ",
"G -     X o o X   o ; < o o O o 8 ( ( G ;   # f ( G -     X o o X   o ; < o o O o r ( ( G ;   # f ( ",
"( 8 o + 7 7 7 $ o 1 U a O O O O ; G 7 ; o   < ~ Q ( 8 o + 7 7 7 $ o 1 U a O O O O ; G 7 ; o   < ( Q ",
"~ L ; o 3 ( ( 5 O - G 3 O 8 b 3 O - o O $ # # a ( ( L ; o 3 ( ( 8 O - G 3 O 8 b 3 O - o O $ # # a ( ",
"Q B , X o 3 b $ # # $ + * Q ( ( 3 o $ 3 U B $ # r B B , . o 3 b $ # # $ + * Q ( ( 3 o $ 3 U B $ # 8 ",
"3 + O < ; O O # a r O   o 3 L r 8 O 3 Q ~ ( 8 . o + + O < ; O O # a a O   o 3 L r 8 O 3 Q Q ( 8 . ; ",
"3 o # L U & O a ~ Q ;     # , o o . 3 Q Q L - o # # o # L U & O a ~ Q ;     # , o o . 3 Q Q L - o x ",
"a o , L ( > 3 ( ( Q ;     # o % % # o ; ; -   O 8 8 o , L ( > 3 ( ~ Q ;   . # o % % # o ; ; -   O a ",
"; X O % 3 o # a x f $ O r $ < U U 3 o   o   X X # # X O - 3 o # a x f $ O r & < U U 3 o   o   X X # ",
"G 7 < > o   o O O O + r ~ $ 3 Q Q 8 O ; ; o 3 4 o # 4 < > o   o O O O + r ~ & 3 Q Q 8 O ; ; o 3 3 o ",
"Q ( _ Q > o 3 % o o 8 ~ Q ; o 5 8 O - G b @ U 3 $ x ( _ Q > o 3 % o o 8 ( Q ; o 5 8 O - G b @ Q 3 # ",
"( U B x $ O b b +   ; B 3 o   O O - L ( S O 3 = 3 ( U B x $ O b b +   ; B 4 o   O O - L ( S O 3 = # ",
"a < + + o o 3 7 +   O + + O < ;   3 ( B -   ; & O r < + + o o 3 7 +   O + + O < ;   3 ( G -   ; & o ",
"o . o + O O o o O +       $ U a o o 1 < X     O O o . o O O O o o O O       $ U a o o 3 < X     O + ",
"% O # f B 3 o $ a f %     . - $     X . # + X 3 b - O # f Z 3 o $ a f %     . ; $     . . # + X 3 Z ",
"Q 7 o v _ B @ + $ $ + O ; X . # < < + # x < o 3 Q Q 7 o v _ S @ + $ $ + O ; X . # < < + @ x < o 3 Q ",
"( 8 o < 8 < X     O o @ < o % a ( Q , $ G 7 # o 3 ~ 8 o < 8 < X   . O o @ < o % a ~ U , $ G 7 + o < ",
"B - O o o o O   o 3 r # o   ; ~ ~ ( x O - O .   o < - O o o o O   o 3 r # o   ; ~ Q ( x O - O .   # ",
"$ o 3 8 O O a - o a _ < * * - Z G G a O   - $       o 3 8 O O a - o a _ < * * - Z G G a O   - $   + ",
"  X # # O 3 B 7 O , r O * r o # # # # o ; U x < O   X # # O 3 b 7 O , r O * r o # # # # o ; U x < # ",
"O O O O O ; $ o X X o O O o   . O O   ; G r Q Q < . O O O O ; $ o X X o O O o   . O O   ; G r Q Q < ",
"b b b b 3 o O # $ X $ x < +   o 3 ; X 4 ( f < a < X < b b 3 o O # # X # x < +   o 4 ; X 4 ( a < a < "
};
