/* XPM */
static char *wolf_face1676045663[] = {
/* columns rows colors chars-per-pixel */
"15 15 6 1 ",
"  c None",
". c black",
"X c #3A4466",
"o c #5A6988",
"O c #8B9BB4",
"+ c white",
/* pixels */
"  ...      ... ",
"  .oo......oo. ",
"  .X.XXXXXX.X. ",
"  .X.oXXXXo.X. ",
"   .oooXXooo.  ",
"   ..+.XX.+..  ",
"  .oo.XooX.oo. ",
"  ..ooO..Ooo.. ",
"  .oo.OooO.oo. ",
"  ..o......o.. ",
"  .XXo.oo.oXX. ",
"  .XXooooXoXX. ",
"   ..o.o.oo..  ",
"    ..o.oO..   ",
"    .o..OO..   "
};
